<svg version="1.1" xmlns="http://www.w3.org/2000/svg" xmlns:xlink="http://www.w3.org/1999/xlink" width="58" height="37" viewBox="0 0 58 37">
<g id="framework-2">
<path id="Shape-21" d="M40.989,29.993 L40.989,26.000 L46.997,26.000 C46.997,26.000 46.997,13.244 46.997,13.244 C46.997,12.462 47.038,11.675 47.038,11.675 L46.962,11.675 C46.962,11.675 46.701,12.235 45.801,12.985 C45.801,12.985 43.570,14.751 43.570,14.751 L40.600,12.133 L47.559,6.012 L51.977,6.012 L51.977,26.000 L58.000,26.000 L58.000,29.993 L40.989,29.993 zM34.897,28.908 C34.880,28.956 34.864,29.001 34.842,29.048 C34.781,29.171 34.708,29.283 34.616,29.386 C34.597,29.407 34.583,29.434 34.560,29.455 C34.460,29.556 34.343,29.646 34.205,29.714 C34.205,29.714 20.492,36.849 20.492,36.849 C20.478,36.854 20.465,36.851 20.453,36.859 C20.271,36.944 20.070,37.000 19.854,37.000 C19.679,37.000 19.509,36.968 19.342,36.903 C19.342,36.903 0.916,29.770 0.916,29.770 C0.906,29.766 0.902,29.760 0.893,29.755 C0.862,29.742 0.836,29.721 0.806,29.707 C0.685,29.648 0.572,29.572 0.474,29.484 C0.439,29.450 0.407,29.415 0.374,29.377 C0.289,29.282 0.219,29.176 0.162,29.062 C0.143,29.024 0.121,28.992 0.106,28.953 C0.051,28.810 0.011,28.658 0.003,28.496 C0.003,28.483 0.006,28.470 0.006,28.456 C0.006,28.446 -0.000,28.436 -0.000,28.427 C-0.000,28.427 -0.000,8.573 -0.000,8.573 C-0.000,8.544 0.016,8.520 0.016,8.494 C0.025,8.353 0.051,8.220 0.098,8.092 C0.114,8.044 0.132,7.997 0.154,7.952 C0.213,7.827 0.289,7.717 0.378,7.614 C0.399,7.593 0.414,7.566 0.435,7.545 C0.539,7.444 0.655,7.354 0.789,7.285 C0.789,7.285 14.940,0.151 14.940,0.151 C14.949,0.145 14.967,0.146 14.978,0.140 C15.083,0.091 15.194,0.077 15.309,0.055 C15.385,0.040 15.461,0.009 15.538,0.008 C15.551,0.006 15.563,-0.000 15.576,-0.000 C15.687,-0.000 15.787,0.040 15.891,0.065 C15.956,0.079 16.025,0.070 16.088,0.094 C16.088,0.094 34.080,7.230 34.080,7.230 C34.088,7.234 34.094,7.240 34.102,7.243 C34.136,7.258 34.161,7.279 34.193,7.295 C34.314,7.354 34.420,7.427 34.517,7.515 C34.558,7.550 34.587,7.587 34.625,7.625 C34.706,7.719 34.776,7.824 34.832,7.936 C34.850,7.973 34.875,8.009 34.889,8.047 C34.945,8.190 34.985,8.342 34.993,8.502 C34.993,8.517 34.991,8.530 34.991,8.544 C34.991,8.554 34.996,8.563 34.996,8.573 C34.996,8.573 34.996,28.427 34.996,28.427 C34.996,28.456 34.979,28.479 34.979,28.506 C34.971,28.647 34.945,28.780 34.897,28.908 zM20.994,33.234 L30.472,28.600 L20.994,25.042 L20.994,33.234 zM14.000,3.764 L4.960,8.400 L14.000,11.957 L14.000,3.764 zM14.000,15.038 L2.973,10.665 L2.973,26.100 L14.000,20.404 L14.000,15.038 zM15.652,22.863 L4.960,28.254 L17.995,33.470 L17.995,23.936 L15.652,22.863 zM17.960,20.856 L17.960,16.697 L17.001,16.145 L17.001,20.303 L17.960,20.856 zM17.001,3.530 L17.001,13.062 L19.778,14.137 L30.472,8.746 L17.001,3.530 zM31.949,10.900 L21.013,16.596 L21.013,21.959 L31.949,26.335 L31.949,10.900 z" fill="#56A1D5" />
</g>
</svg>
