<svg version="1.1" xmlns="http://www.w3.org/2000/svg" xmlns:xlink="http://www.w3.org/1999/xlink" width="46" height="46" viewBox="0 0 46 46">
<g id="framework-3">
<path id="Shape-20-copy" d="M37.858,33.000 C37.858,33.000 45.500,33.000 45.500,33.000 C45.776,33.000 46.000,33.224 46.000,33.500 C46.000,33.500 46.000,34.500 46.000,34.500 C46.000,34.776 45.776,35.000 45.500,35.000 C45.500,35.000 37.858,35.000 37.858,35.000 C37.496,36.401 36.401,37.496 35.000,37.859 C35.000,37.859 35.000,45.500 35.000,45.500 C35.000,45.776 34.776,46.000 34.500,46.000 C34.500,46.000 33.500,46.000 33.500,46.000 C33.224,46.000 33.000,45.776 33.000,45.500 C33.000,45.500 33.000,37.858 33.000,37.858 C31.599,37.496 30.504,36.401 30.141,35.000 C30.141,35.000 15.858,35.000 15.858,35.000 C15.496,36.401 14.401,37.496 13.000,37.858 C13.000,37.858 13.000,45.500 13.000,45.500 C13.000,45.776 12.776,46.000 12.500,46.000 C12.500,46.000 11.500,46.000 11.500,46.000 C11.224,46.000 11.000,45.776 11.000,45.500 C11.000,45.500 11.000,37.858 11.000,37.858 C9.599,37.496 8.504,36.401 8.141,35.000 C8.141,35.000 0.500,35.000 0.500,35.000 C0.223,35.000 -0.000,34.776 -0.000,34.500 C-0.000,34.500 -0.000,33.500 -0.000,33.500 C-0.000,33.224 0.223,33.000 0.500,33.000 C0.500,33.000 8.141,33.000 8.141,33.000 C8.504,31.599 9.599,30.504 11.000,30.141 C11.000,30.141 11.000,15.858 11.000,15.858 C9.599,15.496 8.504,14.401 8.141,13.000 C8.141,13.000 0.500,13.000 0.500,13.000 C0.224,13.000 -0.000,12.776 -0.000,12.500 C-0.000,12.500 -0.000,11.500 -0.000,11.500 C-0.000,11.224 0.224,11.000 0.500,11.000 C0.500,11.000 8.141,11.000 8.141,11.000 C8.504,9.599 9.599,8.504 11.000,8.141 C11.000,8.141 11.000,0.500 11.000,0.500 C11.000,0.224 11.224,-0.000 11.500,-0.000 C11.500,-0.000 12.500,-0.000 12.500,-0.000 C12.776,-0.000 13.000,0.224 13.000,0.500 C13.000,0.500 13.000,8.141 13.000,8.141 C14.401,8.504 15.495,9.599 15.858,11.000 C15.858,11.000 30.141,11.000 30.141,11.000 C30.504,9.599 31.599,8.504 33.000,8.141 C33.000,8.141 33.000,0.500 33.000,0.500 C33.000,0.224 33.224,-0.000 33.500,-0.000 C33.500,-0.000 34.500,-0.000 34.500,-0.000 C34.776,-0.000 35.000,0.224 35.000,0.500 C35.000,0.500 35.000,8.141 35.000,8.141 C36.401,8.504 37.496,9.599 37.858,11.000 C37.858,11.000 45.500,11.000 45.500,11.000 C45.776,11.000 46.000,11.224 46.000,11.500 C46.000,11.500 46.000,12.500 46.000,12.500 C46.000,12.776 45.776,13.000 45.500,13.000 C45.500,13.000 37.858,13.000 37.858,13.000 C37.496,14.401 36.401,15.496 35.000,15.859 C35.000,15.859 35.000,30.141 35.000,30.141 C36.401,30.504 37.496,31.599 37.858,33.000 zM33.000,15.858 C31.599,15.496 30.504,14.401 30.141,13.000 C30.141,13.000 15.858,13.000 15.858,13.000 C15.495,14.401 14.401,15.496 13.000,15.858 C13.000,15.858 13.000,30.141 13.000,30.141 C14.401,30.504 15.496,31.599 15.858,33.000 C15.858,33.000 30.141,33.000 30.141,33.000 C30.504,31.599 31.599,30.504 33.000,30.141 C33.000,30.141 33.000,15.858 33.000,15.858 zM18.513,27.935 C18.513,23.642 24.410,22.953 24.410,20.592 C24.410,19.552 23.558,18.931 22.495,18.931 C21.017,18.931 20.218,20.339 20.218,20.339 L18.513,19.265 C18.513,19.265 19.666,16.885 22.687,16.885 C24.909,16.885 26.793,18.159 26.793,20.406 C26.793,24.228 21.142,24.756 21.089,27.006 C21.089,27.006 26.987,27.006 26.987,27.006 L26.987,28.990 C26.987,28.990 18.619,28.990 18.619,28.990 C18.566,28.604 18.513,28.270 18.513,27.935 z" fill="#56A1D5" />
</g>
</svg>
