<svg version="1.1" xmlns="http://www.w3.org/2000/svg" xmlns:xlink="http://www.w3.org/1999/xlink" width="46" height="46" viewBox="0 0 46 46">
<g id="framework">
<path id="Shape-20" d="M37.858,33.000 C37.858,33.000 45.500,33.000 45.500,33.000 C45.776,33.000 46.000,33.224 46.000,33.500 C46.000,33.500 46.000,34.500 46.000,34.500 C46.000,34.776 45.776,35.000 45.500,35.000 C45.500,35.000 37.858,35.000 37.858,35.000 C37.496,36.401 36.401,37.496 35.000,37.858 C35.000,37.858 35.000,45.500 35.000,45.500 C35.000,45.776 34.776,46.000 34.500,46.000 C34.500,46.000 33.500,46.000 33.500,46.000 C33.224,46.000 33.000,45.776 33.000,45.500 C33.000,45.500 33.000,37.858 33.000,37.858 C31.599,37.495 30.504,36.401 30.141,35.000 C30.141,35.000 15.858,35.000 15.858,35.000 C15.495,36.401 14.401,37.496 13.000,37.858 C13.000,37.858 13.000,45.500 13.000,45.500 C13.000,45.776 12.776,46.000 12.500,46.000 C12.500,46.000 11.500,46.000 11.500,46.000 C11.224,46.000 11.000,45.776 11.000,45.500 C11.000,45.500 11.000,37.858 11.000,37.858 C9.599,37.496 8.504,36.401 8.141,35.000 C8.141,35.000 0.500,35.000 0.500,35.000 C0.224,35.000 -0.000,34.776 -0.000,34.500 C-0.000,34.500 -0.000,33.500 -0.000,33.500 C-0.000,33.224 0.224,33.000 0.500,33.000 C0.500,33.000 8.141,33.000 8.141,33.000 C8.504,31.599 9.599,30.504 11.000,30.141 C11.000,30.141 11.000,15.859 11.000,15.859 C9.599,15.496 8.504,14.401 8.141,13.000 C8.141,13.000 0.500,13.000 0.500,13.000 C0.224,13.000 -0.000,12.776 -0.000,12.500 C-0.000,12.500 -0.000,11.500 -0.000,11.500 C-0.000,11.224 0.224,11.000 0.500,11.000 C0.500,11.000 8.141,11.000 8.141,11.000 C8.504,9.599 9.599,8.504 11.000,8.141 C11.000,8.141 11.000,0.500 11.000,0.500 C11.000,0.224 11.224,-0.000 11.500,-0.000 C11.500,-0.000 12.500,-0.000 12.500,-0.000 C12.776,-0.000 13.000,0.224 13.000,0.500 C13.000,0.500 13.000,8.141 13.000,8.141 C14.401,8.504 15.495,9.599 15.858,11.000 C15.858,11.000 30.141,11.000 30.141,11.000 C30.504,9.599 31.599,8.504 33.000,8.141 C33.000,8.141 33.000,0.500 33.000,0.500 C33.000,0.224 33.224,-0.000 33.500,-0.000 C33.500,-0.000 34.500,-0.000 34.500,-0.000 C34.776,-0.000 35.000,0.224 35.000,0.500 C35.000,0.500 35.000,8.141 35.000,8.141 C36.401,8.504 37.495,9.599 37.858,11.000 C37.858,11.000 45.500,11.000 45.500,11.000 C45.776,11.000 46.000,11.224 46.000,11.500 C46.000,11.500 46.000,12.500 46.000,12.500 C46.000,12.776 45.776,13.000 45.500,13.000 C45.500,13.000 37.858,13.000 37.858,13.000 C37.496,14.401 36.401,15.496 35.000,15.859 C35.000,15.859 35.000,30.141 35.000,30.141 C36.401,30.504 37.496,31.599 37.858,33.000 zM33.000,15.859 C31.599,15.496 30.504,14.401 30.141,13.000 C30.141,13.000 15.858,13.000 15.858,13.000 C15.496,14.401 14.401,15.496 13.000,15.859 C13.000,15.859 13.000,30.141 13.000,30.141 C14.401,30.504 15.495,31.599 15.858,33.000 C15.858,33.000 30.141,33.000 30.141,33.000 C30.504,31.599 31.599,30.504 33.000,30.141 C33.000,30.141 33.000,15.859 33.000,15.859 zM18.973,27.005 L21.999,27.005 C21.999,27.005 21.999,20.444 21.999,20.444 C21.999,20.034 22.018,19.625 22.018,19.625 L21.980,19.625 C21.980,19.625 21.733,19.915 21.295,20.307 C21.295,20.307 20.210,21.228 20.210,21.228 L18.763,19.865 L22.152,16.979 L23.991,16.979 L23.991,27.005 L26.987,27.005 L26.987,28.990 L18.973,28.990 L18.973,27.005 z" fill="#56A1D5" />
</g>
</svg>
