<?xml version="1.0" encoding="iso-8859-1"?>
<!-- Generator: Adobe Illustrator 17.0.0, SVG Export Plug-In . SVG Version: 6.00 Build 0)  -->
<!DOCTYPE svg PUBLIC "-//W3C//DTD SVG 1.1//EN" "http://www.w3.org/Graphics/SVG/1.1/DTD/svg11.dtd">
<svg version="1.1" id="Layer_1" xmlns="http://www.w3.org/2000/svg" xmlns:xlink="http://www.w3.org/1999/xlink" x="0px" y="0px"
	 width="57.875px" height="41.042px" viewBox="0 0 57.875 41.042" style="enable-background:new 0 0 57.875 41.042;"
	 xml:space="preserve">
<path style="opacity:0.5;fill:#AAD0EA;" d="M8.327,32.354c-0.071-1.933,0.765-3.495,3.574-5.307l8.722-5.481L3.865,11.037
	c-0.384-0.229-0.691-0.411-1.115-0.428c-0.9-0.034-1.657,0.669-1.69,1.569c-0.006,0.099,0,0.195,0.015,0.291l0,0l6.302,18.788
	c0.554,1.965,1.509,3.325,2.248,4.098c0.027,0.03,0.054,0.063,0.084,0.093c0.013,0.015,0.03,0.031,0.042,0.046
	c0.501,0.505,1.073,0.963,1.712,1.379C9.538,35.602,8.393,34.056,8.327,32.354z"/>
<path style="fill:#E1529D;" d="M11.836,37.111c-0.011-0.006-0.022-0.014-0.032-0.02C11.814,37.096,11.824,37.104,11.836,37.111z"/>
<path style="fill:#E1529D;" d="M11.804,37.091c-0.116-0.069-0.228-0.144-0.34-0.219C11.574,36.947,11.688,37.019,11.804,37.091z"/>
<path style="opacity:0.75;fill:#80B9E0;" d="M54.152,0.871c-0.578,0.024-0.997,0.274-1.522,0.587L20.623,21.566l13.079,8.217
	c2.059,1.328,2.671,2.472,2.619,3.888c-0.137,3.531-6.617,6.154-14.478,5.859c-4.348-0.164-7.632-0.999-10.007-2.42
	c3.581,2.189,9.55,3.494,16.254,3.24c7.921-0.298,13.254-2.227,16.506-5.509c0.017-0.021,0.039-0.042,0.059-0.062
	c0.039-0.042,0.075-0.087,0.116-0.128c1.005-1.056,2.312-2.911,3.066-5.594L56.441,3.41V3.409c0.019-0.128,0.029-0.259,0.02-0.395
	C56.415,1.786,55.381,0.824,54.152,0.871z"/>
<path style="fill:#56A1D5;" d="M36.321,33.671c0.052-1.416-0.56-2.56-2.619-3.888l-13.079-8.217l-8.722,5.481
	c-2.809,1.812-3.645,3.375-3.574,5.307c0.066,1.702,1.212,3.248,3.137,4.518c0.112,0.075,0.224,0.149,0.34,0.219
	c0.01,0.006,0.021,0.013,0.032,0.02c2.375,1.421,5.659,2.256,10.007,2.42C29.703,39.825,36.184,37.202,36.321,33.671z"/>
</svg>
