<svg version="1.1" xmlns="http://www.w3.org/2000/svg" xmlns:xlink="http://www.w3.org/1999/xlink" width="50" height="41" viewBox="0 0 50 41">
<g id="nda">
<path id="Shape-28" d="M45.127,41.000 C45.127,41.000 4.869,41.000 4.869,41.000 C2.185,41.000 -0.000,38.714 -0.000,35.905 C-0.000,35.905 -0.000,7.790 -0.000,7.790 C-0.000,6.795 0.767,5.992 1.714,5.992 C1.714,5.992 6.021,5.992 6.021,5.992 C6.021,5.992 6.021,1.803 6.021,1.803 C6.021,0.811 6.786,0.009 7.732,0.009 C7.732,0.009 48.280,0.009 48.280,0.009 C49.226,0.009 49.994,0.811 49.994,1.803 C49.994,1.803 49.994,35.905 49.994,35.905 C49.994,38.714 47.811,41.000 45.127,41.000 zM6.021,9.002 L2.994,9.002 C2.994,9.002 2.994,35.512 2.994,35.512 C2.994,36.345 3.695,37.017 4.491,37.017 C5.285,37.017 6.021,36.345 6.021,35.512 C6.021,35.512 6.021,9.002 6.021,9.002 zM47.000,2.982 L8.999,2.982 L8.991,38.006 C8.991,38.006 45.558,38.006 45.558,38.006 C46.353,38.006 47.000,37.333 47.000,36.500 C47.000,36.500 47.000,2.982 47.000,2.982 zM39.952,15.680 L36.668,15.680 L36.036,17.992 L33.386,17.992 L36.963,6.973 L39.671,6.973 L43.250,17.992 L40.599,17.992 L39.952,15.680 zM38.758,11.378 C38.566,10.688 38.332,9.482 38.332,9.482 L38.303,9.482 C38.303,9.482 38.068,10.688 37.876,11.378 C37.876,11.378 37.270,13.519 37.270,13.519 L39.348,13.519 C39.348,13.519 38.758,11.378 38.758,11.378 zM27.612,17.992 C27.612,17.992 23.999,17.992 23.999,17.992 L23.999,6.973 C23.999,6.973 27.612,6.973 27.612,6.973 C30.928,6.973 33.046,8.992 33.046,12.460 C33.046,15.925 30.928,17.992 27.612,17.992 zM27.511,9.282 C27.511,9.282 26.450,9.282 26.450,9.282 L26.450,15.680 C26.450,15.680 27.511,15.680 27.511,15.680 C29.293,15.680 30.381,14.568 30.381,12.460 C30.381,10.360 29.248,9.282 27.511,9.282 zM16.369,12.857 C15.959,12.135 15.487,10.980 15.487,10.980 L15.458,10.980 C15.458,10.980 15.575,12.167 15.575,12.857 C15.575,12.857 15.575,17.992 15.575,17.992 L12.998,17.992 L12.998,6.973 L15.605,6.973 C15.605,6.973 18.518,12.119 18.518,12.119 C18.933,12.844 19.403,13.996 19.403,13.996 L19.432,13.996 C19.432,13.996 19.316,12.814 19.316,12.119 C19.316,12.119 19.316,6.973 19.316,6.973 L21.891,6.973 L21.891,17.992 L19.300,17.992 C19.300,17.992 16.369,12.857 16.369,12.857 z" fill="#56A1D5" />
<path id="Shape-28-copy" d="M12.003,34.995 L12.003,32.029 L43.973,32.029 L43.973,34.995 L12.003,34.995 zM12.003,27.029 L43.973,27.029 L43.973,29.995 L12.003,29.995 L12.003,27.029 zM12.003,22.029 L43.973,22.029 L43.973,24.995 L12.003,24.995 L12.003,22.029 z" fill="#AAD0EA" />
</g>
</svg>
