<svg version="1.1" xmlns="http://www.w3.org/2000/svg" xmlns:xlink="http://www.w3.org/1999/xlink" width="38" height="48" viewBox="0 0 38 48">
<g id="phyisician">
<path id="Shape-18" d="M33.976,25.555 C31.522,27.169 29.269,27.820 27.731,28.081 C27.645,28.614 27.468,29.227 27.137,29.605 C27.238,30.519 27.870,37.238 24.964,40.042 C24.598,40.396 24.206,40.726 23.797,41.021 C23.665,41.480 23.500,41.952 23.305,42.435 C22.046,45.541 19.648,47.488 16.552,47.916 C16.144,47.972 15.728,48.000 15.311,48.000 C12.221,48.000 9.155,46.502 7.111,43.995 C4.332,40.589 3.929,35.984 5.999,31.360 C7.321,28.414 7.705,26.088 7.113,24.619 C6.349,25.225 5.383,25.607 4.307,25.589 C1.912,25.549 -0.000,23.679 0.040,21.412 C0.083,19.142 2.058,17.333 4.455,17.373 C6.852,17.414 8.762,19.284 8.720,21.552 C8.717,21.729 8.699,21.905 8.671,22.077 C8.671,22.077 9.147,22.800 9.147,22.800 C10.569,24.963 10.342,28.178 8.469,32.353 C6.789,36.108 7.065,39.785 9.235,42.441 C10.951,44.546 13.689,45.744 16.163,45.402 C17.870,45.165 19.280,44.207 20.229,42.662 C18.814,42.977 17.380,42.909 16.124,42.455 C13.831,41.622 12.447,39.661 12.325,37.073 C12.227,34.962 13.299,33.260 15.267,32.403 C17.466,31.451 20.413,31.919 22.196,33.501 C22.886,34.116 23.651,35.080 24.013,36.500 C24.650,34.491 24.667,31.629 24.466,29.833 C24.466,29.833 24.455,29.738 24.455,29.738 C24.032,29.391 23.823,28.682 23.725,28.081 C22.187,27.819 19.934,27.169 17.482,25.555 C13.457,22.907 13.956,13.949 13.956,13.949 L14.633,13.949 L14.633,13.948 C14.633,13.948 14.638,11.429 14.638,10.189 C14.638,10.189 14.636,9.764 14.636,9.764 C14.625,8.600 14.609,7.010 15.289,4.851 C15.911,2.878 17.799,1.869 18.642,1.506 C18.642,1.506 18.619,1.287 18.619,1.287 C18.619,1.287 18.761,0.454 20.033,0.244 C21.518,-0.000 21.676,1.287 21.676,1.287 C22.028,3.389 21.245,3.482 21.245,3.482 C19.786,3.820 19.162,3.304 18.916,2.966 C18.117,3.452 17.149,4.252 16.769,5.460 C16.117,7.522 16.132,8.995 16.144,10.180 C16.144,10.180 16.147,10.612 16.147,10.612 C16.147,11.539 16.144,13.178 16.142,13.949 C16.142,13.949 16.806,13.949 16.806,13.949 C16.806,13.949 16.285,21.283 19.853,23.980 C22.426,25.926 25.702,25.844 25.729,25.845 C25.754,25.844 29.030,25.926 31.605,23.980 C35.170,21.283 34.650,13.949 34.650,13.949 C34.650,13.949 35.287,13.949 35.287,13.949 C35.285,13.178 35.282,11.539 35.282,10.612 C35.282,10.612 35.284,10.179 35.284,10.179 C35.296,8.994 35.311,7.520 34.659,5.460 C34.281,4.259 33.326,3.463 32.532,2.976 C32.280,3.314 31.656,3.816 30.211,3.482 C30.211,3.482 29.428,3.389 29.780,1.287 C29.780,1.287 29.937,-0.000 31.425,0.244 C32.697,0.454 32.837,1.287 32.837,1.287 C32.837,1.287 32.813,1.517 32.813,1.517 C33.670,1.891 35.524,2.901 36.140,4.851 C36.819,7.010 36.803,8.600 36.793,9.764 C36.793,9.764 36.790,10.189 36.790,10.189 C36.790,11.429 36.795,13.948 36.795,13.948 L36.795,13.949 L37.500,13.949 C37.500,13.949 38.000,22.907 33.976,25.555 zM6.807,21.371 C6.806,21.351 6.807,21.330 6.805,21.310 C6.804,21.297 6.800,21.286 6.799,21.273 C6.787,21.146 6.766,21.023 6.733,20.903 C6.728,20.885 6.722,20.867 6.716,20.849 C6.680,20.728 6.635,20.610 6.579,20.498 C6.572,20.484 6.563,20.470 6.556,20.456 C6.496,20.343 6.429,20.234 6.351,20.132 C6.344,20.122 6.335,20.113 6.327,20.103 C6.245,20.000 6.157,19.902 6.058,19.813 C6.053,19.809 6.048,19.805 6.042,19.800 C5.616,19.422 5.052,19.181 4.422,19.170 C4.408,19.170 4.394,19.170 4.380,19.170 C3.052,19.170 1.964,20.180 1.941,21.442 C1.917,22.715 2.991,23.769 4.339,23.792 C4.352,23.792 4.365,23.792 4.378,23.792 C4.771,23.792 5.138,23.695 5.468,23.538 C5.482,23.532 5.495,23.524 5.509,23.518 C5.665,23.440 5.811,23.347 5.945,23.240 C5.954,23.233 5.964,23.226 5.973,23.219 C6.290,22.958 6.532,22.624 6.674,22.240 C6.679,22.225 6.684,22.211 6.689,22.196 C6.763,21.982 6.816,21.758 6.820,21.521 C6.821,21.469 6.810,21.421 6.807,21.371 zM20.360,35.354 C19.708,34.778 18.752,34.435 17.799,34.435 C17.295,34.435 16.806,34.529 16.387,34.712 C15.723,35.001 14.944,35.627 15.006,36.961 C15.057,38.061 15.458,39.494 17.083,40.082 C18.346,40.538 19.944,40.318 21.412,39.491 C21.655,38.174 21.629,36.480 20.360,35.354 z" fill="#56A1D5" />
</g>
</svg>
