<svg version="1.1" xmlns="http://www.w3.org/2000/svg" xmlns:xlink="http://www.w3.org/1999/xlink" width="45" height="44" viewBox="0 0 45 44">
<g id="procurement">
<path id="Shape-17" d="M42.502,33.970 C42.502,33.970 2.501,33.970 2.501,33.970 C1.127,33.970 -0.000,32.862 -0.000,31.506 C-0.000,31.506 -0.000,2.460 -0.000,2.460 C-0.000,1.107 1.127,-0.000 2.501,-0.000 C2.501,-0.000 42.502,-0.000 42.502,-0.000 C43.877,-0.000 45.000,1.107 45.000,2.460 C45.000,2.460 45.000,31.506 45.000,31.506 C45.000,32.862 43.877,33.970 42.502,33.970 zM41.025,4.487 C41.025,4.218 40.800,3.996 40.526,3.996 C40.526,3.996 4.474,3.996 4.474,3.996 C4.201,3.996 3.974,4.218 3.974,4.487 C3.974,4.487 3.974,26.493 3.974,26.493 C3.974,26.762 4.201,26.985 4.474,26.985 C4.474,26.985 40.526,26.985 40.526,26.985 C40.800,26.985 41.025,26.762 41.025,26.493 C41.025,26.493 41.025,4.487 41.025,4.487 zM25.979,20.995 L24.003,20.995 L24.003,12.997 L21.024,12.997 L21.024,10.988 L28.990,10.988 L28.990,12.997 L25.979,12.997 L25.979,20.995 zM16.993,10.988 L18.987,10.988 L18.987,20.995 L16.993,20.995 L16.993,10.988 zM11.927,40.996 C11.927,40.996 14.055,40.996 14.055,40.996 C16.681,40.621 17.370,38.120 17.557,36.022 C17.557,36.022 27.439,36.022 27.439,36.022 C27.625,38.120 28.315,40.621 30.944,40.996 C30.944,40.996 33.073,40.996 33.073,40.996 C34.049,40.996 34.836,41.520 34.836,42.479 C34.836,43.439 34.049,44.000 33.073,44.000 C33.073,44.000 11.927,44.000 11.927,44.000 C10.951,44.000 10.164,43.439 10.164,42.479 C10.164,41.520 10.951,40.996 11.927,40.996 z" fill="#56A1D5" />
</g>
</svg>
