<svg version="1.1" xmlns="http://www.w3.org/2000/svg" xmlns:xlink="http://www.w3.org/1999/xlink" width="25" height="48" viewBox="0 0 25 48">
<g id="procurement-3">
<path id="Shape-25" d="M23.852,7.368 C23.725,7.629 23.579,7.881 23.407,8.112 C22.384,9.546 20.770,10.375 19.068,10.375 C18.247,10.375 17.456,10.188 16.713,9.820 C16.713,9.820 16.329,9.631 16.329,9.631 C15.972,9.457 15.591,9.368 15.199,9.368 C14.384,9.368 13.610,9.759 13.136,10.422 C13.053,10.541 12.976,10.662 12.911,10.798 C12.728,11.177 12.644,11.571 12.651,11.973 C18.381,12.252 22.990,17.064 22.987,22.920 C22.987,22.920 22.987,37.027 22.987,37.027 C22.990,43.060 18.102,48.000 12.131,48.000 C12.131,48.000 10.861,48.000 10.861,48.000 C4.886,48.000 -0.000,43.062 0.003,37.024 C0.003,37.024 0.003,22.924 0.003,22.924 C-0.000,17.221 4.357,12.507 9.872,11.998 C9.861,11.158 10.039,10.328 10.411,9.565 C10.549,9.284 10.703,9.018 10.882,8.767 C11.881,7.382 13.495,6.551 15.201,6.551 C16.018,6.551 16.813,6.738 17.555,7.105 C17.555,7.105 17.946,7.296 17.946,7.296 C18.300,7.475 18.675,7.564 19.066,7.564 C19.883,7.564 20.655,7.167 21.132,6.506 C21.212,6.391 21.292,6.255 21.363,6.112 C21.909,4.997 21.577,3.640 20.572,2.894 C20.452,2.805 20.318,2.728 20.179,2.660 C19.850,2.490 19.603,2.200 19.487,1.842 C19.373,1.484 19.402,1.105 19.571,0.770 C19.805,0.297 20.281,-0.000 20.812,-0.000 C21.030,-0.000 21.237,0.049 21.434,0.145 C21.705,0.287 21.963,0.447 22.208,0.628 C24.309,2.165 25.000,5.000 23.852,7.368 zM9.982,31.001 L12.972,31.001 L12.972,39.003 L14.986,39.003 L14.986,31.001 L18.007,31.001 L18.007,28.967 L9.982,28.967 L9.982,31.001 zM9.975,22.252 C9.975,23.187 10.567,23.946 11.495,23.946 C12.420,23.946 13.014,23.187 13.014,22.252 C13.014,22.252 13.014,19.713 13.014,19.713 C13.014,18.776 12.420,18.018 11.495,18.018 C10.567,18.018 9.975,18.776 9.975,19.713 C9.975,19.713 9.975,22.252 9.975,22.252 zM7.987,28.967 L5.973,28.967 L5.973,39.003 L7.987,39.003 L7.987,28.967 z" fill="#56A1D5" />
</g>
</svg>
