<svg version="1.1" xmlns="http://www.w3.org/2000/svg" xmlns:xlink="http://www.w3.org/1999/xlink" width="52" height="49" viewBox="0 0 52 49">
<g id="procurement-2">
<path id="Shape-19" d="M46.629,49.000 C43.722,47.355 41.131,45.592 38.398,44.730 C35.010,43.667 32.118,45.474 29.075,46.121 C26.690,46.627 21.505,47.244 18.872,46.231 C15.601,44.973 11.967,42.291 7.998,39.826 C4.012,37.351 -1.000,35.296 1.172,31.917 C3.072,28.963 12.845,37.181 17.043,38.635 C19.352,39.433 21.515,39.479 23.742,39.259 C26.299,39.008 31.172,38.632 30.918,35.903 C30.625,32.787 26.028,33.530 22.641,33.739 C20.758,33.856 15.906,34.871 16.015,31.480 C16.104,28.674 22.266,28.783 24.289,28.497 C27.956,27.974 30.814,26.587 34.185,27.410 C40.487,28.954 45.843,34.827 51.967,37.397 C52.000,42.026 50.657,46.388 46.629,49.000 zM32.487,16.993 C32.487,19.812 30.539,22.214 27.198,22.661 C27.198,22.661 27.198,25.200 27.198,25.200 L24.846,25.200 C24.846,25.200 24.846,22.661 24.846,22.661 C21.318,22.246 19.370,20.058 19.370,20.058 L21.287,17.378 C21.287,17.378 23.394,19.452 26.133,19.452 C27.609,19.452 28.953,18.679 28.953,17.077 C28.953,13.766 19.698,14.091 19.698,8.148 C19.698,5.307 21.807,3.093 24.846,2.599 C24.846,2.599 24.846,-0.000 24.846,-0.000 L27.198,-0.000 C27.198,-0.000 27.198,2.546 27.198,2.546 C30.378,2.820 32.021,4.564 32.021,4.564 L30.486,7.467 C30.486,7.467 28.623,5.749 26.186,5.749 C24.548,5.749 23.258,6.710 23.258,8.097 C23.258,11.385 32.487,10.806 32.487,16.993 z" fill="#56A1D5" />
</g>
</svg>
