<svg version="1.1" xmlns="http://www.w3.org/2000/svg" xmlns:xlink="http://www.w3.org/1999/xlink" width="45" height="45" viewBox="0 0 45 45">
<g id="realestate">
<path id="Shape-26" d="M39.000,45.000 C39.000,45.000 39.000,39.000 39.000,39.000 C39.000,38.446 38.551,38.000 38.000,38.000 C38.000,38.000 30.001,38.000 30.001,38.000 C29.447,38.000 29.001,38.446 29.001,39.000 C29.001,39.000 29.001,45.000 29.001,45.000 L27.000,45.000 L27.000,35.999 C27.000,35.999 32.001,35.999 32.001,35.999 C32.552,35.999 33.000,35.553 33.000,35.001 C33.000,35.001 33.000,31.999 33.000,31.999 C33.000,31.447 32.552,31.001 32.001,31.001 C32.001,31.001 27.000,31.001 27.000,31.001 L27.000,28.999 C27.000,28.999 32.001,28.999 32.001,28.999 C32.552,28.999 33.000,28.553 33.000,28.000 C33.000,28.000 33.000,24.999 33.000,24.999 C33.000,24.447 32.552,24.001 32.001,24.001 C32.001,24.001 27.000,24.001 27.000,24.001 L27.000,22.000 C27.000,22.000 32.001,22.000 32.001,22.000 C32.552,22.000 33.000,21.554 33.000,20.999 C33.000,20.999 33.000,17.999 33.000,17.999 C33.000,17.448 32.552,17.000 32.001,17.000 C32.001,17.000 27.000,17.000 27.000,17.000 L27.000,13.999 C27.000,13.999 43.000,13.999 43.000,13.999 C44.105,13.999 45.000,14.895 45.000,16.000 C45.000,16.000 45.000,45.000 45.000,45.000 L39.000,45.000 zM42.001,17.999 C42.001,17.448 41.552,17.000 41.000,17.000 C41.000,17.000 35.999,17.000 35.999,17.000 C35.447,17.000 35.000,17.448 35.000,17.999 C35.000,17.999 35.000,20.999 35.000,20.999 C35.000,21.554 35.447,22.000 35.999,22.000 C35.999,22.000 41.000,22.000 41.000,22.000 C41.552,22.000 42.001,21.554 42.001,20.999 C42.001,20.999 42.001,17.999 42.001,17.999 zM42.001,24.999 C42.001,24.447 41.552,24.001 41.000,24.001 C41.000,24.001 35.999,24.001 35.999,24.001 C35.447,24.001 35.000,24.447 35.000,24.999 C35.000,24.999 35.000,28.000 35.000,28.000 C35.000,28.553 35.447,28.999 35.999,28.999 C35.999,28.999 41.000,28.999 41.000,28.999 C41.552,28.999 42.001,28.553 42.001,28.000 C42.001,28.000 42.001,24.999 42.001,24.999 zM42.001,31.999 C42.001,31.447 41.552,31.001 41.000,31.001 C41.000,31.001 35.999,31.001 35.999,31.001 C35.447,31.001 35.000,31.447 35.000,31.999 C35.000,31.999 35.000,35.001 35.000,35.001 C35.000,35.553 35.447,35.999 35.999,35.999 C35.999,35.999 41.000,35.999 41.000,35.999 C41.552,35.999 42.001,35.553 42.001,35.001 C42.001,35.001 42.001,31.999 42.001,31.999 zM17.999,39.000 C17.999,38.446 17.553,38.000 17.000,38.000 C17.000,38.000 9.001,38.000 9.001,38.000 C8.448,38.000 8.000,38.446 8.000,39.000 C8.000,39.000 8.000,45.000 8.000,45.000 L-0.000,45.000 C-0.000,45.000 -0.000,1.999 -0.000,1.999 C-0.000,0.895 0.895,-0.000 1.999,-0.000 C1.999,-0.000 23.999,-0.000 23.999,-0.000 C25.103,-0.000 25.999,0.895 25.999,1.999 C25.999,1.999 25.999,45.000 25.999,45.000 L17.999,45.000 C17.999,45.000 17.999,39.000 17.999,39.000 zM11.999,4.001 C11.999,3.448 11.552,2.999 11.000,2.999 C11.000,2.999 4.000,2.999 4.000,2.999 C3.447,2.999 2.999,3.448 2.999,4.001 C2.999,4.001 2.999,7.000 2.999,7.000 C2.999,7.552 3.447,8.001 4.000,8.001 C4.000,8.001 11.000,8.001 11.000,8.001 C11.552,8.001 11.999,7.552 11.999,7.000 C11.999,7.000 11.999,4.001 11.999,4.001 zM11.999,11.000 C11.999,10.448 11.552,9.999 11.000,9.999 C11.000,9.999 4.000,9.999 4.000,9.999 C3.447,9.999 2.999,10.448 2.999,11.000 C2.999,11.000 2.999,13.999 2.999,13.999 C2.999,14.553 3.447,15.000 4.000,15.000 C4.000,15.000 11.000,15.000 11.000,15.000 C11.552,15.000 11.999,14.553 11.999,13.999 C11.999,13.999 11.999,11.000 11.999,11.000 zM11.999,17.999 C11.999,17.448 11.552,17.000 11.000,17.000 C11.000,17.000 4.000,17.000 4.000,17.000 C3.447,17.000 2.999,17.448 2.999,17.999 C2.999,17.999 2.999,20.999 2.999,20.999 C2.999,21.554 3.447,22.000 4.000,22.000 C4.000,22.000 11.000,22.000 11.000,22.000 C11.552,22.000 11.999,21.554 11.999,20.999 C11.999,20.999 11.999,17.999 11.999,17.999 zM11.999,24.999 C11.999,24.447 11.552,24.001 11.000,24.001 C11.000,24.001 4.000,24.001 4.000,24.001 C3.447,24.001 2.999,24.447 2.999,24.999 C2.999,24.999 2.999,28.000 2.999,28.000 C2.999,28.553 3.447,28.999 4.000,28.999 C4.000,28.999 11.000,28.999 11.000,28.999 C11.552,28.999 11.999,28.553 11.999,28.000 C11.999,28.000 11.999,24.999 11.999,24.999 zM11.999,31.999 C11.999,31.447 11.552,31.001 11.000,31.001 C11.000,31.001 4.000,31.001 4.000,31.001 C3.447,31.001 2.999,31.447 2.999,31.999 C2.999,31.999 2.999,35.001 2.999,35.001 C2.999,35.553 3.447,35.999 4.000,35.999 C4.000,35.999 11.000,35.999 11.000,35.999 C11.552,35.999 11.999,35.553 11.999,35.001 C11.999,35.001 11.999,31.999 11.999,31.999 zM23.000,4.001 C23.000,3.448 22.552,2.999 22.000,2.999 C22.000,2.999 14.999,2.999 14.999,2.999 C14.447,2.999 13.999,3.448 13.999,4.001 C13.999,4.001 13.999,7.000 13.999,7.000 C13.999,7.552 14.447,8.001 14.999,8.001 C14.999,8.001 22.000,8.001 22.000,8.001 C22.552,8.001 23.000,7.552 23.000,7.000 C23.000,7.000 23.000,4.001 23.000,4.001 zM23.000,11.000 C23.000,10.448 22.552,9.999 22.000,9.999 C22.000,9.999 14.999,9.999 14.999,9.999 C14.447,9.999 13.999,10.448 13.999,11.000 C13.999,11.000 13.999,13.999 13.999,13.999 C13.999,14.553 14.447,15.000 14.999,15.000 C14.999,15.000 22.000,15.000 22.000,15.000 C22.552,15.000 23.000,14.553 23.000,13.999 C23.000,13.999 23.000,11.000 23.000,11.000 zM23.000,17.999 C23.000,17.448 22.552,17.000 22.000,17.000 C22.000,17.000 14.999,17.000 14.999,17.000 C14.447,17.000 13.999,17.448 13.999,17.999 C13.999,17.999 13.999,20.999 13.999,20.999 C13.999,21.554 14.447,22.000 14.999,22.000 C14.999,22.000 22.000,22.000 22.000,22.000 C22.552,22.000 23.000,21.554 23.000,20.999 C23.000,20.999 23.000,17.999 23.000,17.999 zM23.000,24.999 C23.000,24.447 22.552,24.001 22.000,24.001 C22.000,24.001 14.999,24.001 14.999,24.001 C14.447,24.001 13.999,24.447 13.999,24.999 C13.999,24.999 13.999,28.000 13.999,28.000 C13.999,28.553 14.447,28.999 14.999,28.999 C14.999,28.999 22.000,28.999 22.000,28.999 C22.552,28.999 23.000,28.553 23.000,28.000 C23.000,28.000 23.000,24.999 23.000,24.999 zM23.000,35.001 C23.000,35.001 23.000,31.999 23.000,31.999 C23.000,31.447 22.552,31.001 22.000,31.001 C22.000,31.001 14.999,31.001 14.999,31.001 C14.447,31.001 13.999,31.447 13.999,31.999 C13.999,31.999 13.999,35.001 13.999,35.001 C13.999,35.553 14.447,35.999 14.999,35.999 C14.999,35.999 22.000,35.999 22.000,35.999 C22.552,35.999 23.000,35.553 23.000,35.001 z" fill="#56A1D5" />
</g>
</svg>
