<svg version="1.1" xmlns="http://www.w3.org/2000/svg" xmlns:xlink="http://www.w3.org/1999/xlink" width="40" height="43" viewBox="0 0 40 43">
<g id="repository">
<path id="Shape-24" d="M19.982,30.823 C17.101,30.823 3.983,30.567 1.221,26.243 C0.494,25.305 -0.000,23.550 -0.000,21.512 C-0.000,19.759 0.378,18.244 0.942,17.247 C5.337,20.567 14.405,21.132 19.982,21.132 C25.524,21.132 34.658,20.577 39.052,17.243 C39.618,18.239 40.000,19.751 40.000,21.512 C40.000,23.638 39.462,25.459 38.683,26.362 C35.764,30.576 22.840,30.823 19.982,30.823 zM19.982,18.654 C17.101,18.654 3.983,18.399 1.221,14.076 C0.494,13.136 -0.000,11.381 -0.000,9.343 C-0.000,7.357 0.469,5.637 1.162,4.680 C3.781,0.261 17.080,-0.000 19.982,-0.000 C22.863,-0.000 35.957,0.255 38.741,4.562 C39.485,5.486 40.000,7.269 40.000,9.343 C40.000,11.469 39.462,13.293 38.683,14.196 C35.764,18.407 22.840,18.654 19.982,18.654 zM19.982,2.216 C11.628,2.216 4.861,3.728 4.861,5.594 C4.861,7.461 11.628,8.970 19.982,8.974 C28.338,8.974 35.109,7.461 35.109,5.594 C35.107,3.731 28.338,2.216 19.982,2.216 zM19.982,33.307 C25.524,33.307 34.658,32.756 39.052,29.421 C39.618,30.414 40.000,31.929 40.000,33.688 C40.000,35.815 39.462,37.637 38.683,38.540 C35.764,42.752 22.840,43.000 19.982,43.000 C17.101,43.000 3.983,42.744 1.221,38.421 C0.494,37.481 -0.000,35.726 -0.000,33.688 C-0.000,31.937 0.378,30.420 0.942,29.425 C5.337,32.743 14.405,33.307 19.982,33.307 z" fill="#56A1D5" />
</g>
</svg>
