<svg version="1.1" xmlns="http://www.w3.org/2000/svg" xmlns:xlink="http://www.w3.org/1999/xlink" width="60" height="37" viewBox="0 0 60 37">
<g id="sales">
<path id="Shape-27" d="M58.898,17.356 C58.898,17.356 53.451,19.980 53.451,19.980 C52.698,20.342 51.829,20.086 51.508,19.407 C51.508,19.407 44.626,4.870 44.626,4.870 C44.305,4.191 44.655,3.348 45.407,2.986 C45.407,2.986 50.854,0.362 50.854,0.362 C51.606,-0.000 52.476,0.256 52.797,0.934 C52.797,0.934 59.679,15.472 59.679,15.472 C60.000,16.150 59.650,16.993 58.898,17.356 zM49.579,18.923 C49.612,19.130 49.553,19.448 49.472,19.559 C49.164,19.973 48.251,20.311 47.434,20.229 C47.149,20.200 46.961,20.123 46.754,19.981 C46.008,19.470 45.341,18.940 44.646,18.407 C43.238,17.327 41.836,16.265 40.461,15.226 C38.346,13.629 36.282,12.066 33.889,10.743 C33.094,10.303 32.229,9.878 31.307,9.627 C30.834,9.498 30.216,9.416 29.676,9.498 C28.183,9.721 27.294,10.815 26.281,11.576 C25.925,11.844 25.515,12.038 25.005,12.125 C24.474,12.214 23.856,12.165 23.406,11.975 C22.590,11.629 21.987,10.847 22.157,9.610 C22.226,9.108 22.423,8.635 22.627,8.215 C22.830,7.799 23.110,7.435 23.377,7.125 C23.947,6.462 24.569,5.831 25.134,5.204 C25.721,4.552 26.433,4.058 27.324,3.739 C28.005,3.495 28.750,3.365 29.600,3.296 C30.461,3.226 31.536,3.264 32.403,3.354 C32.995,3.415 33.541,3.548 34.061,3.696 C36.166,4.293 37.896,5.162 39.954,5.805 C40.484,5.970 41.043,6.108 41.657,6.084 C42.243,6.061 42.825,5.964 43.441,5.929 C45.431,10.080 47.415,14.327 49.398,18.514 C49.459,18.645 49.563,18.820 49.579,18.923 zM20.801,9.420 C20.566,11.138 21.361,12.605 22.875,13.247 C23.312,13.433 23.831,13.536 24.375,13.547 C24.666,13.553 24.955,13.533 25.231,13.486 C25.925,13.369 26.536,13.106 27.099,12.684 C27.377,12.474 27.636,12.253 27.886,12.039 C28.553,11.468 29.130,10.975 29.876,10.863 C29.967,10.850 30.072,10.844 30.187,10.847 C30.426,10.851 30.704,10.892 30.950,10.959 C31.155,11.016 31.359,11.083 31.559,11.158 C31.791,11.301 32.008,11.435 32.206,11.559 C35.612,13.679 42.121,18.391 45.368,20.750 C45.886,21.126 46.489,21.741 46.194,22.659 C46.043,23.130 45.763,23.572 45.401,23.813 C44.990,24.087 44.327,24.071 43.840,23.877 C43.422,23.711 42.994,23.371 42.621,23.150 C41.834,22.684 41.028,22.116 40.269,21.613 C39.608,21.175 38.918,20.719 38.209,20.274 C38.046,20.172 37.852,20.038 37.611,20.123 C37.347,20.217 37.155,20.639 37.415,20.928 C37.525,21.048 37.787,21.185 37.936,21.278 C39.148,22.044 40.421,22.871 41.577,23.661 C42.219,24.099 42.951,24.584 43.572,25.116 C43.866,25.367 44.158,25.685 44.290,26.109 C44.432,26.560 44.288,27.071 44.052,27.465 C43.837,27.824 43.565,28.146 43.171,28.308 C42.738,28.487 42.186,28.394 41.782,28.174 C41.074,27.786 40.326,27.291 39.647,26.865 C38.960,26.433 38.259,25.971 37.556,25.503 C37.060,25.174 36.525,24.825 35.995,24.483 C35.831,24.376 35.640,24.197 35.464,24.152 C34.997,24.034 34.666,24.558 34.922,24.918 C35.016,25.051 35.216,25.135 35.368,25.236 C36.747,26.136 38.127,27.032 39.478,27.957 C40.068,28.361 40.792,28.787 40.590,29.798 C40.507,30.213 40.317,30.511 40.085,30.808 C39.860,31.096 39.584,31.352 39.228,31.461 C38.803,31.591 38.350,31.465 37.998,31.287 C37.319,30.943 36.691,30.528 36.113,30.142 C35.059,29.439 34.053,28.667 32.973,27.972 C32.800,27.861 32.630,27.687 32.421,27.642 C32.058,27.564 31.680,27.914 31.859,28.332 C31.953,28.553 32.279,28.690 32.502,28.835 C33.007,29.163 33.511,29.544 33.999,29.886 C34.688,30.370 35.367,30.826 36.027,31.267 C36.174,31.366 36.335,31.601 36.438,31.776 C36.554,31.971 36.645,32.199 36.668,32.408 C36.725,32.917 36.434,33.344 36.107,33.577 C35.719,33.854 35.162,33.834 34.736,33.613 C34.355,33.414 33.947,33.198 33.517,32.967 C33.532,32.437 33.466,31.818 33.187,31.286 C32.799,30.546 31.960,30.056 31.050,30.037 C30.973,30.036 30.895,30.038 30.819,30.043 C30.511,30.065 30.241,30.130 29.981,30.244 C29.920,29.760 29.776,29.262 29.481,28.854 C29.037,28.239 28.205,27.831 27.361,27.814 C27.283,27.813 27.204,27.814 27.128,27.820 C26.704,27.850 26.370,27.970 26.105,28.111 C26.031,27.697 25.886,27.297 25.636,26.945 C25.204,26.335 24.376,25.930 23.526,25.913 C23.418,25.910 23.311,25.915 23.206,25.926 C23.068,25.939 22.943,25.964 22.829,25.994 C22.787,25.798 22.728,25.610 22.650,25.430 C22.316,24.659 21.408,24.085 20.493,24.066 C20.394,24.064 20.295,24.068 20.198,24.080 C19.935,24.110 19.687,24.179 19.438,24.293 C19.237,24.385 19.052,24.494 18.881,24.614 C17.240,23.653 15.750,22.778 14.548,22.073 C13.019,21.177 11.696,20.208 10.380,19.141 C12.352,14.819 14.331,10.505 16.311,6.193 C17.220,6.641 18.151,7.262 19.451,7.321 C20.081,7.349 20.701,7.185 21.270,7.060 C21.463,7.017 21.654,6.940 21.842,6.861 C21.689,7.081 21.534,7.330 21.399,7.607 C21.173,8.071 20.900,8.698 20.801,9.420 zM8.541,19.480 C8.231,20.163 7.365,20.433 6.608,20.083 C6.608,20.083 1.120,17.546 1.120,17.546 C0.362,17.196 -0.000,16.358 0.310,15.675 C0.310,15.675 6.963,1.029 6.963,1.029 C7.274,0.346 8.140,0.077 8.897,0.427 C8.897,0.427 14.385,2.963 14.385,2.963 C15.142,3.313 15.505,4.151 15.195,4.834 C15.195,4.834 8.541,19.480 8.541,19.480 zM20.003,25.551 C20.088,25.512 20.201,25.469 20.353,25.452 C20.782,25.402 21.277,25.708 21.397,25.983 C21.506,26.236 21.566,26.574 21.513,27.006 C21.487,27.222 21.397,27.444 21.321,27.651 C21.111,28.224 20.814,28.847 20.466,29.272 C20.181,29.620 19.669,30.040 19.038,30.040 C18.322,30.041 17.844,29.478 17.917,28.645 C17.981,27.910 18.365,27.282 18.692,26.811 C19.031,26.321 19.429,25.813 20.003,25.551 zM21.448,29.217 C21.803,28.502 22.183,27.868 22.853,27.471 C22.984,27.392 23.123,27.321 23.342,27.299 C23.790,27.254 24.315,27.455 24.524,27.748 C25.003,28.425 24.754,29.749 24.510,30.524 C24.358,31.007 24.181,31.448 23.967,31.832 C23.668,32.370 23.215,32.961 22.539,33.142 C22.297,33.207 22.009,33.200 21.749,33.116 C20.880,32.834 20.590,31.639 20.915,30.535 C21.048,30.083 21.251,29.614 21.448,29.217 zM25.531,30.598 C25.658,30.382 25.769,30.173 25.923,29.990 C26.041,29.849 26.222,29.714 26.384,29.584 C26.619,29.395 26.838,29.225 27.225,29.197 C27.649,29.166 28.166,29.378 28.375,29.667 C28.724,30.149 28.695,31.163 28.553,31.830 C28.314,32.956 27.926,33.884 27.275,34.601 C26.962,34.943 26.561,35.276 25.944,35.254 C25.309,35.231 24.949,34.897 24.737,34.442 C24.534,34.007 24.464,33.340 24.614,32.717 C24.794,31.966 25.181,31.195 25.531,30.598 zM29.315,32.749 C29.430,32.549 29.553,32.335 29.674,32.193 C29.866,31.966 30.178,31.691 30.467,31.540 C30.577,31.482 30.703,31.435 30.912,31.421 C31.363,31.389 31.810,31.612 31.977,31.932 C32.197,32.351 32.179,33.023 32.081,33.561 C31.888,34.625 31.517,35.500 30.943,36.186 C30.660,36.522 30.282,36.853 29.801,36.896 C28.609,37.000 28.217,35.802 28.485,34.689 C28.645,34.025 28.993,33.306 29.315,32.749 z" fill="#56A1D5" />
</g>
</svg>
